#!OML:ASF H:\ManfredETheater\Project 1\Capture day 1\Session 1\subject.ASF
:FULLY-SPECIFIED
:DEGREES
151
root -0.574932 17.3013 -16.1007 -521.612 -63.3257 184.669
lowerback 16.7569 1.95249 1.34266
upperback 1.66613 2.6049 -0.94195
thorax -7.49858 1.1433 -2.35562
lowerneck -4.707 -12.8501 -14.7905
upperneck -12.4282 -16.1264 21.2659
head 0.254792 -8.39897 8.23235
rclavicle 3.9906e-014 -8.74653e-015
rhumerus -39.5578 16.753 -98.8395
rradius 83.31
rwrist 8.7728
rhand -26.0282 10.7236
rfingers 7.12502
rthumb 0.518501 -19.2555
lclavicle 3.9906e-014 -8.74653e-015
lhumerus -63.9543 1.46052 85.068
lradius 102.268
lwrist 1.9766
lhand -32.1317 -18.7368
lfingers 7.12502
lthumb -5.37585 11.175
rfemur 1.87392 -4.89331 39.78
rtibia 22.4845
rfoot 31.6252 -1.96393
rtoes 5.08355
lfemur -68.6165 -1.98481 -15.7398
ltibia 52.79
lfoot -16.6845 -13.6968
ltoes -20.988
152
root -0.848418 17.3271 -16.5146 -522.916 -62.2029 185.655
lowerback 16.3708 2.16686 1.46382
upperback 1.3836 2.91724 -1.03049
thorax -7.56476 1.29314 -2.58039
lowerneck -4.93643 -12.8876 -14.7329
upperneck -11.5863 -16.222 21.1838
head 0.535794 -8.39728 8.13181
rclavicle 1.82385e-014 6.79844e-014
rhumerus -39.6703 18.0278 -99.7533
rradius 82.2764
rwrist 9.59814
rhand -25.6749 11.0975
rfingers 7.12502
rthumb 0.8597 -18.8806
lclavicle 1.82385e-014 6.79844e-014
lhumerus -64.0226 1.55721 85.3991
lradius 102.694
lwrist 2.18982
lhand -32.1207 -18.2788
lfingers 7.12502
lthumb -5.36531 11.6333
rfemur 2.93246 -3.95733 39.8616
rtibia 23.6321
rfoot 30.2018 -3.16875
rtoes 1.41125
lfemur -68.3372 -2.40915 -14.9641
ltibia 50.1764
lfoot -17.0652 -13.8802
ltoes -21.1771
153
root -1.12046 17.3443 -16.9249 -523.914 -61.0073 186.334
lowerback 15.9884 2.38241 1.51135
upperback 1.11121 3.21468 -1.13947
thorax -7.62265 1.43719 -2.77959
lowerneck -5.20283 -12.91 -14.6821
upperneck -10.7731 -16.2947 21.0828
head 0.808909 -8.38384 8.03021
rclavicle 4.9398e-014 -7.54388e-014
rhumerus -39.8005 19.2281 -100.622
rradius 81.3114
rwrist 10.0816
rhand -25.3574 11.3463
rfingers 7.12502
rthumb 1.16641 -18.6303
lclavicle 4.9398e-014 -7.54388e-014
lhumerus -63.9336 1.6191 85.7659
lradius 103.087
lwrist 2.4674
lhand -32.0764 -17.8735
lfingers 7.12502
lthumb -5.32245 12.0397
rfemur 3.50757 -3.19859 39.7694
rtibia 25.5682
rfoot 28.7786 -3.99198
rtoes -1.95391
lfemur -67.9927 -2.91099 -14.0897
ltibia 47.7529
lfoot -17.4521 -14.0549
ltoes -21.4174
154
root -1.39122 17.3523 -17.3314 -524.653 -59.7646 186.779
lowerback 15.568 2.58721 1.51227
upperback 0.84893 3.48795 -1.25691
thorax -7.64951 1.57131 -2.95145
lowerneck -5.51054 -12.9121 -14.6361
upperneck -9.99158 -16.3359 20.9515
head 1.0712 -8.35426 7.9247
rclavicle -4.69132e-014 3.91606e-014
rhumerus -39.9454 20.3379 -101.431
rradius 80.4128
rwrist 10.2553
rhand -25.0155 11.4633
rfingers 7.12502
rthumb 1.4966 -18.5112
lclavicle -4.69132e-014 3.91606e-014
lhumerus -63.6857 1.65595 86.1551
lradius 103.427
lwrist 2.75401
lhand -31.9786 -17.5118
lfingers 7.12502
lthumb -5.22804 12.4037
rfemur 3.67866 -2.60622 39.5252
rtibia 28.0428
rfoot 27.5367 -4.36872
rtoes -4.72833
lfemur -67.599 -3.47252 -13.122
ltibia 45.536
lfoot -17.7494 -14.1535
ltoes -21.6611
155
root -1.66158 17.3507 -17.7327 -525.178 -58.5247 187.029
lowerback 15.1147 2.75453 1.52949
upperback 0.595068 3.71254 -1.38921
thorax -7.64765 1.68149 -3.13334
lowerneck -5.86134 -12.8893 -14.5866
upperneck -9.23357 -16.3391 20.7856
head 1.32323 -8.3053 7.81308
rclavicle -1.28216e-014 -5.00937e-014
rhumerus -40.1084 21.3331 -102.185
rradius 79.5761
rwrist 10.1596
rhand -24.6111 11.4611
rfingers 7.12502
rthumb 1.88717 -18.5103
lclavicle -1.28216e-014 -5.00937e-014
lhumerus -63.2882 1.65975 86.5418
lradius 103.699
lwrist 2.99546
lhand -31.7908 -17.1758
lfingers 7.12502
lthumb -5.04677 12.7441
rfemur 3.48277 -2.20772 39.1354
rtibia 30.9462
rfoot 26.4795 -4.3411
rtoes -6.69505
lfemur -67.1622 -4.09655 -12.1165
ltibia 43.5725
lfoot -17.9145 -14.1585
ltoes -21.8715
156
root -1.93112 17.3379 -18.1314 -525.657 -57.26 187.214
lowerback 14.6604 2.90492 1.54621
upperback 0.370872 3.91515 -1.49435
thorax -7.61444 1.78176 -3.27761
lowerneck -6.24178 -12.8406 -14.5417
upperneck -8.52186 -16.3002 20.5827
head 1.55616 -8.2363 7.6982
rclavicle -7.99114e-014 5.28767e-014
rhumerus -40.2768 22.2072 -102.84
rradius 78.7979
rwrist 9.85734
rhand -24.1305 11.3469
rfingers 7.12502
rthumb 2.35131 -18.6199
lclavicle -7.99114e-014 5.28767e-014
lhumerus -62.7413 1.63888 86.9478
lradius 103.892
lwrist 3.15792
lhand -31.5553 -16.849
lfingers 7.12502
lthumb -4.81932 13.0761
rfemur 2.99586 -1.94955 38.6692
rtibia 34.2706
rfoot 25.4623 -4.0545
rtoes -7.89931
lfemur -66.6542 -4.65945 -11.1266
ltibia 41.9792
lfoot -18.0194 -14.0916
ltoes -22.1686
